<svg width="39" height="39" viewBox="0 0 39 39" fill="none" xmlns="http://www.w3.org/2000/svg">
<path d="M19.2835 3.02559C23.8295 3.09262 24.2804 4.12551 25.6119 4.16207C27.5375 4.21692 30.4808 0.514963 34.4692 3.86043C38.3996 7.15715 35.1974 12.3307 35.1974 12.3307C35.1974 12.3307 37.385 16.2064 37.641 22.1112C37.8268 26.386 36.1815 31.7058 28.805 34.7222C22.0135 37.501 11.8796 36.9464 5.68534 32.1903C0.883467 28.5066 1.22167 23.1319 1.35269 21.3007C1.69698 16.4958 3.79628 12.6354 3.79628 12.6354C3.79628 12.6354 0.691514 6.49598 4.48183 3.58621C8.64386 0.390042 11.6054 4.15293 13.3178 4.01582C14.5639 3.91223 14.9722 2.9616 19.2835 3.02559Z" fill="#855B52"/>
<path d="M10.9626 6.3283C10.9047 5.99009 8.69874 3.80244 6.41663 6.02666C4.65858 7.74205 6.41663 10.7249 6.71827 10.4873C6.94983 10.3045 7.80296 9.20455 8.79928 8.25697C9.81999 7.28502 10.9839 6.45931 10.9626 6.3283ZM28.1835 6.34963C28.1683 6.53853 29.3444 7.24845 30.4138 8.25697C31.4955 9.27767 32.4705 10.5939 32.6441 10.5726C32.9884 10.5299 34.4662 7.63541 32.5375 6.00533C30.6088 4.37525 28.2262 5.79205 28.1835 6.34963Z" fill="#B99277"/>
<path d="M19.6554 18.397C24.1161 18.397 26.7912 23.4304 26.6328 26.5748C26.4896 29.4358 24.8595 31.8093 19.369 31.7788C13.8786 31.7514 12.4861 29.2317 12.3917 26.5443C12.3064 24.1434 14.0218 18.397 19.6554 18.397Z" fill="#F2A258"/>
<path d="M28.3116 18.1898C28.4122 19.4573 27.7327 20.6121 26.4317 20.5146C25.1764 20.4171 24.2593 19.3994 24.2593 18.1258C24.2593 16.8522 24.9357 15.9504 25.9533 15.8102C27.1965 15.6365 28.1684 16.3891 28.3116 18.1898Z" fill="#171716"/>
<path d="M22.7147 23.4579C22.6111 24.7254 21.7702 26.0813 19.3266 25.9959C17.276 25.9228 16.3102 24.5578 16.2797 23.2873C16.237 21.4927 17.1937 20.8315 19.5124 20.798C22.1571 20.7645 22.8579 21.7151 22.7147 23.4579Z" fill="#2F3030"/>
<path d="M14.7378 18.662C14.6068 19.9265 13.4185 20.8131 12.3064 20.5419C11.0846 20.2433 10.5361 18.9576 10.7921 17.7114C11.0206 16.5962 11.9986 15.7279 13.1077 15.8528C14.2655 15.9808 14.9023 17.0685 14.7378 18.662Z" fill="#171716"/>
<path d="M19.497 28.9574C21.1697 28.9574 22.0838 28.0342 22.3428 27.7783C22.6017 27.5224 22.9491 27.0836 23.4853 27.5224C23.9424 27.8941 23.4914 28.473 23.2842 28.6954C22.9125 29.0946 21.7913 30.3133 19.3446 30.2036C16.9437 30.097 16.0205 29.0092 15.7615 28.7533C15.5056 28.4974 15.076 27.8392 15.5604 27.4675C16.1424 27.0227 16.3313 27.5254 16.9315 28.0099C17.5317 28.4943 17.9095 28.9574 19.497 28.9574Z" fill="#2F3030"/>
</svg>
