<svg width="106" height="112" viewBox="0 0 106 112" fill="none" xmlns="http://www.w3.org/2000/svg">
<path d="M105.852 28.7839L69.0539 111.298L31.6511 109.05L0.833853 87.9107L22.4478 0.173096L105.852 28.7839Z" fill="#264DE4"/>
<path d="M64.4081 103.646L95.8538 33.1343L61.7618 21.4395L34.1847 101.83L64.4081 103.646Z" fill="#2965F1"/>
<path d="M26.629 44.6781L23.983 55.4403L47.3487 63.4556L50.9304 53.0144L26.629 44.6781Z" fill="#EBEBEB"/>
<path d="M58.1802 31.8808L58.144 31.8684L31.9983 22.8994L29.3656 33.6664L54.5983 42.3222L58.1802 31.8808Z" fill="#EBEBEB"/>
<path d="M37.9017 90.9946L41.6282 80.1313L41.5783 80.1278L31.0269 72.9988L33.1401 64.4164L22.6587 60.8208L18.4976 77.717L37.849 90.9916L37.9017 90.9946Z" fill="#EBEBEB"/>
<path d="M60.17 67.8536L54.3127 80.9795L41.5891 80.1279L37.8628 90.9907L61.3031 92.4011L73.9486 64.0441L75.1651 61.3277L84.2997 40.8408L58.144 31.8684L54.5622 42.3098L69.2751 47.3569L64.6572 57.7231L50.8944 53.0019L47.3127 63.4431L60.17 67.8536Z" fill="white"/>
</svg>
