<svg width="91" height="94" viewBox="0 0 91 94" fill="none" xmlns="http://www.w3.org/2000/svg">
<path fill-rule="evenodd" clip-rule="evenodd" d="M25.6511 11.4915L33.4814 26.3118C16.9209 35.0616 12.2851 57.4107 27.3685 70.5619C30.1391 72.978 33.4484 74.7532 37.0648 75.7631C40.6811 76.7729 44.517 76.9931 48.3036 76.408C68.8933 73.1785 78.9057 52.3685 70.6173 36.6811L86.2175 28.4387C99.4275 53.4409 84.2035 86.4295 52.2003 92.8636C38.2209 95.6461 23.7617 91.6472 13.9637 82.187C-8.5563 60.4965 -0.791382 25.4625 25.6511 11.4915Z" fill="#0080FF"/>
<path fill-rule="evenodd" clip-rule="evenodd" d="M48.9666 18.0751L33.4133 26.2927L41.1977 41.026L56.7493 32.8093L48.9666 18.0751ZM54.9534 0.388773L42.9694 6.72055L48.9674 18.0728L60.9514 11.741L54.9534 0.388773ZM70.971 6.44711L60.9514 11.741L65.967 21.2338L75.9865 15.94L70.971 6.44711Z" fill="#0080FF"/>
</svg>
