<svg width="100" height="68" viewBox="0 0 100 68" fill="none" xmlns="http://www.w3.org/2000/svg">
<path d="M99.402 45.9379C99.2353 45.6343 97.6407 42.8917 92.7174 40.8252C91.415 40.2852 90.071 39.8522 88.6984 39.5304C90.4869 32.5993 86.4238 27.1486 86.2416 26.9041L85.2397 25.5867L83.8435 26.4765C82.0472 27.7049 80.4724 29.2292 79.1866 30.9848C76.7402 34.343 75.8065 38.0697 76.4437 41.8583C73.6219 42.1728 69.8216 40.9467 69.0676 40.6627L8.32974 15.1683C6.74235 14.5046 4.91689 15.2463 4.24239 16.829C1.93809 22.1202 0.619446 27.7878 0.351397 33.5528C0.140543 39.918 1.5568 45.2664 4.56826 49.4398C7.93983 54.1238 14.6461 58.8066 23.0036 62.3147C26.7741 63.9113 30.686 65.1514 34.6877 66.0189C40.2454 67.2374 45.9675 67.518 51.6177 66.8489C56.2935 66.2495 60.842 64.8994 65.0875 62.8503C72.186 59.4228 77.5992 54.5594 81.9942 50.0628L82.8438 50.4194C88.1124 52.6308 92.2372 51.8825 94.7654 50.8656C96.4257 50.2372 97.9288 49.2536 99.1693 47.9837L100.01 47.0382L99.402 45.9379Z" fill="#2496ED"/>
<path d="M14.7062 15.7528L22.8453 19.1692C23.2378 19.3339 23.6895 19.1493 23.8542 18.7568L26.8974 11.5069C27.0643 11.1153 26.8821 10.6626 26.4906 10.4957L18.3475 7.07765C17.955 6.91288 17.5033 7.09757 17.3386 7.49L14.2938 14.7438C14.1291 15.1363 14.3136 15.588 14.7062 15.7528Z" fill="#2496ED"/>
<path d="M25.9223 20.4608L34.0615 23.8771C34.454 24.0419 34.9057 23.8572 35.0704 23.4648L38.1135 16.2149C38.2805 15.8233 38.0983 15.3706 37.7067 15.2036L29.5636 11.7856C29.1689 11.6199 28.7146 11.8054 28.549 12.2002L25.5059 19.45C25.3432 19.8442 25.5292 20.2957 25.9223 20.4608Z" fill="#2496ED"/>
<path d="M37.3091 25.2403L45.4483 28.6567C45.8408 28.8215 46.2925 28.6368 46.4572 28.2443L49.5003 20.9944C49.6673 20.6028 49.4851 20.1501 49.0935 19.9832L40.9504 16.5651C40.5578 16.4003 40.1062 16.585 39.9415 16.9775L36.8967 24.2313C36.732 24.6238 36.9167 25.0756 37.3091 25.2403Z" fill="#2496ED"/>
<path d="M48.561 29.9632L56.7001 33.3796C57.0933 33.5447 57.5459 33.3612 57.713 32.9689L60.7562 25.719C60.9218 25.3243 60.7362 24.8702 60.3415 24.7045L52.2023 21.2881C51.8098 21.1233 51.3581 21.308 51.1934 21.7004L48.1487 28.9542C47.9839 29.3468 48.1685 29.7985 48.561 29.9632Z" fill="#2496ED"/>
<path d="M30.3003 10.0308L38.4394 13.4472C38.8334 13.61 39.2851 13.4239 39.45 13.0308L42.4931 5.78105C42.6579 5.38852 42.4732 4.93685 42.0808 4.77213L33.9416 1.35574C33.5485 1.19075 33.0958 1.37415 32.9287 1.76643L29.8856 9.01617C29.7224 9.41096 29.9074 9.8633 30.3003 10.0308Z" fill="#2496ED"/>
<path d="M41.687 14.8104L49.8262 18.2267C50.2201 18.3895 50.6718 18.2034 50.8368 17.8103L53.8799 10.5606C54.0446 10.1681 53.8599 9.71636 53.4675 9.55168L45.3284 6.1353C44.9358 5.97054 44.4842 6.15521 44.3194 6.54764L41.2764 13.7974C41.1114 14.1905 41.2949 14.6432 41.687 14.8104Z" fill="#2496ED"/>
<path d="M52.9389 19.5333L61.0781 22.9497C61.4728 23.1128 61.9252 22.928 62.0927 22.5349L65.1357 15.2852C65.2986 14.8911 65.1126 14.4396 64.7194 14.2746L56.5802 10.8582C56.1877 10.6935 55.736 10.8781 55.5713 11.2706L52.5283 18.5203C52.3633 18.9134 52.5468 19.3661 52.9389 19.5333Z" fill="#2496ED"/>
<path d="M57.3185 9.09939L65.4577 12.5158C65.8508 12.6808 66.3034 12.4973 66.4706 12.1051L69.5153 4.85119C69.6783 4.45714 69.4922 4.00564 69.099 3.84061L60.9599 0.424223C60.5673 0.259463 60.1157 0.44405 59.9509 0.836574L56.9062 8.09037C56.7414 8.4829 56.9261 8.93466 57.3185 9.09939Z" fill="#2496ED"/>
<path d="M59.9122 34.7279L68.0512 38.1442C68.4445 38.3093 68.897 38.1258 69.0642 37.7336L72.1073 30.4836C72.273 30.0889 72.0873 29.6347 71.6926 29.469L63.5535 26.0527C63.1611 25.888 62.7093 26.0726 62.5446 26.465L59.4998 33.7188C59.3351 34.1114 59.5197 34.5631 59.9122 34.7279Z" fill="#2496ED"/>
</svg>
