<svg width="32" height="32" viewBox="0 0 32 32" fill="none" xmlns="http://www.w3.org/2000/svg">
<path d="M29.9565 1.80578L8.14618 19.9818M13.2845 25.1429L18.2627 30.0984C18.5685 30.4117 18.9507 30.6398 19.3716 30.7601C19.7926 30.8803 20.2376 30.8886 20.6627 30.7841C21.0901 30.6843 21.4846 30.4763 21.8084 30.1801C22.1323 29.8839 22.3745 29.5094 22.5119 29.0926L30.6856 4.58978C30.8566 4.13086 30.8921 3.63246 30.788 3.15392C30.6838 2.67538 30.4443 2.23686 30.098 1.89056C29.7517 1.54425 29.3131 1.30476 28.8346 1.20058C28.3561 1.0964 27.8577 1.13192 27.3987 1.30292L2.89589 9.47892C2.46476 9.6261 2.08071 9.88565 1.78338 10.2308C1.48604 10.5759 1.2862 10.9942 1.20446 11.4424C1.12048 11.8503 1.13918 12.2728 1.25887 12.6717C1.37856 13.0707 1.59549 13.4337 1.89018 13.7281L8.14618 19.9841L7.94046 27.9064L13.2845 25.1429Z" stroke="black" stroke-linecap="round" stroke-linejoin="round"/>
</svg>
