<svg width="100" height="100" viewBox="0 0 100 100" fill="none" xmlns="http://www.w3.org/2000/svg">
<path d="M93.9022 15.7137L24.0456 1.08429C20.024 0.240657 16.0653 2.81711 15.2052 6.83788L12.1096 21.3321L30.5117 25.1864C32.5377 22.6247 35.8941 21.2741 39.3028 21.9882C42.73 22.7089 45.2592 25.3176 46.0485 28.4944L63.7833 32.2093C65.8051 29.6219 69.1847 28.2449 72.6138 28.9661C77.4025 29.9681 80.4543 34.6572 79.4328 39.4434C78.4107 44.2304 73.7031 47.2943 68.9107 46.2915C65.3067 45.5347 62.6859 42.6889 62.0469 39.2867L45.5079 35.8227L62.6247 62.1249C63.5852 62.0098 64.5575 62.0506 65.5038 62.2459C70.2925 63.2478 73.3446 67.9373 72.3245 72.7258C71.3015 77.5113 66.5916 80.5767 61.8058 79.5717C57.0144 78.5655 53.9626 73.8764 54.9854 69.0921C55.2301 67.945 55.7 66.8569 56.3679 65.8906L39.0905 39.344C37.9369 39.5667 36.751 39.5558 35.6033 39.3116C31.9765 38.5547 29.3531 35.6816 28.7288 32.2548L10.5879 28.4542L0.364987 76.3127C-0.493196 80.3355 2.07336 84.279 6.09786 85.1213L75.9556 99.7511C79.9781 100.594 83.9361 98.0182 84.7968 93.997L99.6352 24.5234C100.494 20.5018 97.9258 16.5561 93.9022 15.7137Z" fill="#DE4C36"/>
</svg>
