<svg width="43" height="43" viewBox="0 0 43 43" fill="none" xmlns="http://www.w3.org/2000/svg">
<path d="M21.5002 3.5835C19.1473 3.5835 16.8175 4.04692 14.6438 4.94732C12.47 5.84772 10.4949 7.16745 8.83117 8.83117C5.47114 12.1912 3.5835 16.7484 3.5835 21.5002C3.5835 29.4193 8.72558 36.1381 15.8385 38.521C16.7343 38.6643 17.021 38.1089 17.021 37.6252V34.5972C12.0581 35.6722 11.001 32.1964 11.001 32.1964C10.1768 30.1181 9.01225 29.5627 9.01225 29.5627C7.38183 28.4518 9.13766 28.4877 9.13766 28.4877C10.9293 28.6131 11.8789 30.3331 11.8789 30.3331C13.4377 33.0564 16.0714 32.2502 17.0927 31.8202C17.2539 30.6556 17.7197 29.8672 18.2214 29.4193C14.2439 28.9714 10.0693 27.4306 10.0693 20.6043C10.0693 18.6156 10.7502 17.021 11.9147 15.7489C11.7356 15.301 11.1085 13.4377 12.0939 11.0189C12.0939 11.0189 13.5989 10.5352 17.021 12.8464C18.4364 12.4522 19.9772 12.2552 21.5002 12.2552C23.0231 12.2552 24.5639 12.4522 25.9793 12.8464C29.4014 10.5352 30.9064 11.0189 30.9064 11.0189C31.8918 13.4377 31.2647 15.301 31.0856 15.7489C32.2502 17.021 32.931 18.6156 32.931 20.6043C32.931 27.4485 28.7385 28.9535 24.7431 29.4014C25.3881 29.9568 25.9793 31.0497 25.9793 32.716V37.6252C25.9793 38.1089 26.266 38.6823 27.1797 38.521C34.2927 36.1202 39.4168 29.4193 39.4168 21.5002C39.4168 19.1473 38.9534 16.8175 38.053 14.6438C37.1526 12.47 35.8329 10.4949 34.1692 8.83117C32.5054 7.16745 30.5303 5.84772 28.3566 4.94732C26.1828 4.04692 23.853 3.5835 21.5002 3.5835Z" fill="black"/>
</svg>
