<svg width="96" height="107" viewBox="0 0 96 107" fill="none" xmlns="http://www.w3.org/2000/svg">
<path d="M24.5628 103.501L0 16.5112L86.66 0.173199L95.4488 90.0869L61.7849 106.624" fill="#E44D26"/>
<path d="M60.4379 99.0877L44.6988 15.6045L80.1225 8.92605L87.593 85.6816" fill="#F16529"/>
<path d="M19.5086 31.5584L46.739 26.4246L48.7835 37.269L33.4485 40.1602L36.5458 51.0782L50.8776 48.3762L52.9176 59.1967L28.649 63.7721L19.5086 31.5584ZM30.1535 69.1282L41.0457 67.0747L43.4447 75.6013L56.1915 76.5622L58.3261 87.8844L34.8931 85.871" fill="#EBEBEB"/>
<path d="M73.8735 21.3089L46.6908 26.4337L48.7353 37.2781L74.9148 32.3425L73.8735 21.3089ZM76.0295 43.6343L50.8293 48.3853L52.8738 59.2297L66.2502 56.7079L67.6412 71.0396L56.1433 76.5713L58.2688 87.8457L79.3213 77.4949" fill="white"/>
</svg>
