<svg width="49" height="49" viewBox="0 0 49 49" fill="none" xmlns="http://www.w3.org/2000/svg">
<path fill-rule="evenodd" clip-rule="evenodd" d="M4.0835 24.5C4.0835 13.2239 13.224 4.08334 24.5002 4.08334C35.7763 4.08334 44.9168 13.2239 44.9168 24.5C44.9168 35.7761 35.7763 44.9167 24.5002 44.9167C13.224 44.9167 4.0835 35.7761 4.0835 24.5ZM18.3752 16.3333C17.5629 16.3333 16.784 16.656 16.2096 17.2303C15.6353 17.8047 15.3127 18.5836 15.3127 19.3958V19.4163C15.3127 20.2285 15.6353 21.0074 16.2096 21.5818C16.784 22.1561 17.5629 22.4788 18.3752 22.4788H18.3956C19.2078 22.4788 19.9868 22.1561 20.5611 21.5818C21.1354 21.0074 21.4581 20.2285 21.4581 19.4163V19.3958C21.4581 18.5836 21.1354 17.8047 20.5611 17.2303C19.9868 16.656 19.2078 16.3333 18.3956 16.3333H18.3752ZM30.6252 16.3333C29.8129 16.3333 29.034 16.656 28.4596 17.2303C27.8853 17.8047 27.5627 18.5836 27.5627 19.3958V19.4163C27.5627 20.2285 27.8853 21.0074 28.4596 21.5818C29.034 22.1561 29.8129 22.4788 30.6252 22.4788H30.6456C31.4578 22.4788 32.2368 22.1561 32.8111 21.5818C33.3854 21.0074 33.7081 20.2285 33.7081 19.4163V19.3958C33.7081 18.5836 33.3854 17.8047 32.8111 17.2303C32.2368 16.656 31.4578 16.3333 30.6456 16.3333H30.6252ZM18.4446 34.4348C18.2125 34.3004 18.0091 34.1215 17.8461 33.9085C17.6831 33.6955 17.5637 33.4524 17.4947 33.1933C17.4257 32.9341 17.4084 32.6638 17.4439 32.398C17.4794 32.1321 17.5669 31.8758 17.7014 31.6438C18.5976 30.0924 19.8864 28.8041 21.4382 27.9085C22.99 27.0129 24.7501 26.5415 26.5418 26.5417C27.0833 26.5417 27.6026 26.7568 27.9855 27.1397C28.3684 27.5226 28.5835 28.0419 28.5835 28.5833C28.5835 29.1248 28.3684 29.6441 27.9855 30.027C27.6026 30.4099 27.0833 30.625 26.5418 30.625C25.466 30.6243 24.409 30.907 23.4771 31.4446C22.5452 31.9822 21.7714 32.7558 21.2335 33.6875C20.9627 34.1564 20.5168 34.4986 19.9938 34.6387C19.4708 34.7789 18.9135 34.7055 18.4446 34.4348Z" fill="white"/>
</svg>
