<svg width="76" height="102" viewBox="0 0 76 102" fill="none" xmlns="http://www.w3.org/2000/svg">
<path d="M24.7548 78.5331C24.7548 78.5331 20.963 80.833 27.5431 81.5067C35.539 82.2526 39.6771 82.0671 48.4272 80.171C48.4272 80.171 50.7786 81.5372 54.0367 82.784C34.4181 91.6705 9.29271 83.1928 24.7548 78.5331ZM22.1065 67.5759C22.1065 67.5759 17.8304 70.8959 24.5074 71.3656C33.1091 72.0991 39.7737 71.963 51.4419 69.5022C51.4419 69.5022 53.0906 71.0849 55.6336 71.9421C31.846 79.4995 5.05555 73.5813 22.1065 67.5759Z" fill="black"/>
<path d="M42.0196 48.3792C46.9821 53.935 40.9255 59.1098 40.9255 59.1098C40.9255 59.1098 53.115 52.4965 47.2972 44.6347C41.7927 37.2715 37.6772 33.6178 59.4308 20.4448C59.5297 20.3418 25.1723 29.7314 42.0196 48.3792Z" fill="black"/>
<path d="M68.9486 85.8131C68.9486 85.8131 71.8234 88.0779 65.9028 90.0172C54.5623 93.6835 18.5355 95.5306 8.34685 91.2938C4.67861 89.7524 11.4009 87.4936 13.5111 86.9454C15.7224 86.3952 16.9362 86.4714 16.9362 86.4714C12.8393 83.7265 -8.80102 92.5532 5.99142 94.6756C46.5191 100.515 79.5473 90.3446 68.9486 85.8131ZM26.1124 55.9776C26.1124 55.9776 7.82288 60.6951 19.7714 62.0674C24.8348 62.6711 34.7266 62.267 44.0001 61.2695C51.5612 60.5089 59.2067 58.9384 59.2067 58.9384C59.2067 58.9384 56.503 60.1049 54.6112 61.4568C36.0311 66.7863 0.0352068 65.1981 10.3329 59.9367C18.9346 55.7202 26.1124 55.9776 26.1124 55.9776ZM59.4089 73.7844C78.1929 63.6017 69.2139 54.2891 63.0789 55.6267C61.5704 55.9605 60.9707 56.2758 60.9707 56.2758C60.9707 56.2758 61.558 55.3547 62.5616 55.0311C74.5925 50.5425 84.2249 67.1152 59.0153 74.2975C59.0153 74.2975 59.3121 73.9884 59.4089 73.7844Z" fill="black"/>
<path d="M46.4865 0C46.4865 0 57.2028 10.2873 37.0341 26.8626C20.9395 40.1221 33.7124 47.2357 37.6219 55.6416C27.8536 47.2544 20.7293 39.7223 25.2299 32.5589C31.985 22.0157 51.0679 16.5749 46.4865 0Z" fill="black"/>
<path d="M28.8519 101.078C47.0529 101.919 74.9868 99.5297 75.4153 90.8332C75.4153 90.8332 74.1687 94.0913 60.4892 96.9973C44.9983 100.243 25.907 100.33 14.4572 98.6446C14.5582 98.6426 16.9199 100.514 28.8519 101.078Z" fill="black"/>
</svg>
