<svg width="110" height="110" viewBox="0 0 110 110" fill="none" xmlns="http://www.w3.org/2000/svg">
<path d="M99.4175 9.05272C98.7045 3.57609 93.6868 -0.285574 88.2102 0.427452L8.87969 10.7558C3.40306 11.4689 -0.4586 16.4866 0.254426 21.9632L10.5827 101.293C11.2958 106.77 16.3135 110.631 21.7901 109.918L101.121 99.5901C106.597 98.877 110.459 93.8593 109.746 88.3827L99.4175 9.05272Z" fill="#F7DF1E"/>
<path d="M72.1016 83.5851C74.0812 82.0621 76.8258 82.5506 78.92 83.9117C80.7144 85.078 82.8539 85.6641 85.5911 85.3078C89.4521 84.8051 91.6673 82.5541 91.3202 79.8878C90.9042 76.6925 88.2227 75.8908 83.7309 74.5851L81.2711 73.8889C74.174 71.8997 69.2397 68.8925 68.2519 61.3058C67.342 54.3171 71.9743 48.3037 80.2961 47.2202C84.8222 46.6309 88.5331 47.3716 91.7147 49.9831C93.4903 51.4405 93.145 54.1149 91.3885 55.5952C89.4822 57.2016 86.7439 56.5044 84.4114 55.6245C83.4922 55.2777 82.4965 55.1981 81.3541 55.3468C78.6249 55.7022 77.1204 57.6589 77.4149 59.9207C77.7788 62.7162 79.6576 63.6224 83.881 64.8334L86.3405 65.528C94.6998 67.8923 99.6207 70.7716 100.634 78.5535C101.726 86.943 95.7341 92.3972 86.8834 93.5495C80.2605 94.4118 75.1171 92.6252 71.526 89.4759C69.6944 87.8697 70.1708 85.0706 72.1016 83.5851ZM39.1219 88.916C41.1617 87.2871 43.8908 88.0302 46.1486 89.3404C47.0644 89.8718 48.1283 90.1259 49.4708 89.9511C52.5322 89.5525 54.3076 88.1033 53.7012 83.4458L50.1826 56.4199C49.8476 53.8468 51.662 51.4892 54.2351 51.1542C56.8082 50.8192 59.1658 52.6336 59.5008 55.2067L63.0358 82.3586C64.292 92.0072 59.2068 97.1353 50.9495 98.2103C45.4685 98.9239 41.4109 97.3331 38.5322 94.7082C36.7809 93.1114 37.27 90.3949 39.1219 88.916Z" fill="black"/>
</svg>
