<svg width="35" height="40" viewBox="0 0 35 40" fill="none" xmlns="http://www.w3.org/2000/svg">
<path d="M30 2.5C32.7578 2.5 35 4.74219 35 7.5V32.5C35 35.2578 32.7578 37.5 30 37.5H5C2.24219 37.5 0 35.2578 0 32.5V7.5C0 4.74219 2.24219 2.5 5 2.5H30ZM8.21094 14.6094C5.1875 14.6094 2.73438 17.0547 2.73438 20.0781C2.73438 23.1016 5.1875 25.5469 8.21094 25.5469C10.1484 25.5469 11.8438 24.5469 12.8203 23.0312L12.8594 22.9766L12.8281 22.9297C12.3203 22.1016 12.0312 21.125 12.0312 20.0781C12.0312 19.0156 12.3359 18.0234 12.8594 17.1797C11.8906 15.6328 10.1719 14.6094 8.21094 14.6094ZM17.5 14.6094C15.5625 14.6094 13.8672 15.6094 12.8906 17.125L12.8516 17.1797L12.8828 17.2266C13.3906 18.0547 13.6797 19.0312 13.6797 20.0781C13.6797 21.1406 13.375 22.1328 12.8516 22.9766C13.8203 24.5156 15.5391 25.5469 17.5 25.5469C19.4375 25.5469 21.1328 24.5469 22.1094 23.0312L22.1484 22.9766L22.1172 22.9297C21.6094 22.1016 21.3203 21.125 21.3203 20.0781C21.3203 19.0156 21.625 18.0234 22.1484 17.1797C21.1797 15.6406 19.4609 14.6094 17.5 14.6094ZM26.7891 14.6094C24.8516 14.6094 23.1562 15.6094 22.1797 17.125L22.1406 17.1797L22.1719 17.2266C22.6797 18.0547 22.9688 19.0312 22.9688 20.0781C22.9688 21.1406 22.6641 22.1328 22.1406 22.9766C23.1094 24.5234 24.8281 25.5469 26.7891 25.5469C29.8125 25.5469 32.2656 23.1016 32.2656 20.0781C32.2656 17.0547 29.8125 14.6094 26.7891 14.6094Z" fill="black"/>
</svg>
