<svg width="37" height="37" viewBox="0 0 37 37" fill="none" xmlns="http://www.w3.org/2000/svg">
<path d="M31.524 31.5295H26.0443V22.9456C26.0443 20.8976 26.0018 18.2632 23.1879 18.2632C20.3315 18.2632 19.8949 20.4906 19.8949 22.7938V31.5295H14.4171V13.875H19.6784V16.28H19.7506C20.4851 14.8925 22.274 13.431 24.9454 13.431C30.4973 13.431 31.524 17.0829 31.524 21.8393V31.5295ZM8.22695 11.4589C6.46205 11.4589 5.04495 10.0325 5.04495 8.2769C5.04495 6.52125 6.4639 5.0949 8.22695 5.0949C9.07087 5.0949 9.88022 5.43015 10.477 6.02689C11.0737 6.62363 11.4089 7.43298 11.4089 8.2769C11.4089 9.12082 11.0737 9.93017 10.477 10.5269C9.88022 11.1237 9.07087 11.4589 8.22695 11.4589ZM10.9724 31.5314H5.47785V13.875H10.9724V31.5314ZM34.2657 0H2.7306C1.221 0 0 1.19325 0 2.664V34.336C0 35.8068 1.221 37 2.7306 37H34.2583C35.766 37 37 35.8086 37 34.336V2.664C37 1.1951 35.766 0 34.2583 0H34.2657Z" fill="black"/>
</svg>
