<svg width="21" height="21" viewBox="0 0 21 21" fill="none" xmlns="http://www.w3.org/2000/svg">
<path d="M8.94936 15.7697C10.1605 15.1452 10.6376 13.6524 10.0131 12.4412L7.14095 6.87128L13.0085 6.11976L15.112 10.1991C14.6777 10.1723 14.2441 10.2622 13.8563 10.4595C12.6451 11.084 12.168 12.5768 12.7926 13.788C13.4171 14.9992 14.91 15.4762 16.1211 14.8517C17.3323 14.2272 17.8093 12.7343 17.1848 11.5232L13.9084 5.16923C13.8503 5.05666 13.7589 4.96469 13.6468 4.9058C13.5346 4.8469 13.407 4.82392 13.2813 4.83997L6.10958 5.75801C6.01111 5.77059 5.91712 5.80671 5.83558 5.86332C5.75403 5.91993 5.68733 5.99536 5.64112 6.08322C5.59491 6.17107 5.57056 6.26877 5.57012 6.36804C5.56969 6.46731 5.59318 6.56522 5.63861 6.65348L7.94026 11.1171C7.50595 11.0904 7.07239 11.1803 6.68451 11.3775C5.47335 12.002 4.99628 13.4949 5.62081 14.706C6.24534 15.9172 7.73819 16.3943 8.94936 15.7697Z" fill="white"/>
</svg>
