<svg width="102" height="91" viewBox="0 0 102 91" fill="none" xmlns="http://www.w3.org/2000/svg">
<path d="M70.3207 0.536482C73.1762 0.446526 76.0313 1.95621 77.5501 4.37762C85.2522 16.4448 92.9629 28.5041 100.661 40.5741C102.111 42.8397 102.272 45.8789 100.984 48.2527L81.1033 85.6699C79.7989 88.1619 77.0245 89.7121 74.2354 89.6913C59.9789 90.0476 45.7241 90.4143 31.4695 90.7715C28.5557 90.8618 25.6984 89.2179 24.2681 86.6848C21.9922 83.0307 19.7057 79.383 17.4284 75.7307C16.9692 74.9729 16.381 74.2514 16.2527 73.3476C16.9727 73.005 17.7602 73.3331 18.501 73.4101C20.1058 73.703 21.7389 73.6722 23.3615 73.6623C23.7963 73.6135 24.1413 73.904 24.3432 74.2617C26.2988 77.3685 28.2047 80.509 30.1779 83.6054C30.5953 84.2728 31.4499 84.1353 32.1169 84.1218C46.1149 83.7573 60.1138 83.4228 74.1109 83.0554C74.6117 83.0754 75.0571 82.7692 75.2568 82.3151C81.8225 69.976 88.3762 57.6277 94.9362 45.2854C95.2452 44.814 95.2006 44.2059 94.8602 43.7649C87.199 31.7997 79.5486 19.8281 71.8902 7.86239C71.77 7.63156 71.5828 7.44253 71.3532 7.3201C71.1235 7.19763 70.8623 7.14755 70.6036 7.17636C56.4003 7.52891 42.1964 7.89613 27.995 8.24497C27.4405 8.2109 26.9026 8.49977 26.6914 9.02555C20.1351 21.3698 13.5739 33.7141 7.01467 46.0592C6.88255 46.2622 6.81571 46.501 6.82328 46.7431C6.83088 46.9854 6.9125 47.2195 7.05719 47.4139C9.09513 50.6177 11.1432 53.8118 13.186 57.011C14.36 58.7696 16.0995 60.3682 18.2714 60.6526C20.1748 60.9287 22.1621 59.8927 23.0336 58.179C29.5685 45.916 36.0669 33.6309 42.6046 21.3717C42.8541 20.8057 43.6099 20.6302 44.1124 20.9628C45.5188 21.698 46.9272 22.4343 48.3167 23.2015C48.9088 23.4991 48.9996 24.2996 48.6356 24.81C42.0688 37.1558 35.5282 49.516 28.9425 61.8518C27.1977 65.1449 23.9429 68.0075 20.0431 68.0004C15.2606 67.9506 10.8441 65.0757 8.12893 61.2443C5.77211 57.9393 3.71505 54.4237 1.47579 51.0347C-0.111475 48.7383 -0.367064 45.566 0.966997 43.0923L20.8477 5.67474C22.1182 3.22813 24.8039 1.64767 27.5486 1.63277C41.8059 1.27051 56.0638 0.90253 70.3207 0.536482Z" fill="#8CC84B"/>
<path d="M66.1181 31.5398C71.0655 33.7736 76.1201 36.62 79.1727 41.264C81.5461 44.8408 81.3801 49.6127 79.4715 53.3468C79.1131 53.7968 78.4445 53.7949 77.9859 53.5073C76.599 52.7679 75.1997 52.051 73.8267 51.2853C73.226 50.9951 73.1722 50.2705 73.3748 49.7107C73.9173 47.7272 73.8835 45.4591 72.67 43.7185C70.7911 41.0768 67.7887 39.5643 64.9832 38.108C62.888 37.1334 60.603 36.1456 58.2399 36.4266C56.4323 36.6302 55.0562 38.2486 54.7451 39.9757C54.6281 41.2722 55.6696 42.264 56.5029 43.1108C61.4669 47.6817 67.6558 50.7776 72.2564 55.7665C74.1679 57.8194 75.6226 60.6089 75.1216 63.486C74.4243 67.3284 71.8782 71.0113 68.1394 72.4069C65.0906 73.5702 61.7021 73.2846 58.6076 72.4632C54.5105 71.3337 50.6979 69.3347 47.1705 66.9954C43.8843 64.738 40.7324 61.8849 39.2984 58.0667C38.0545 54.8347 38.5865 51.1114 40.3006 48.1556C40.5979 47.6607 41.2935 47.5749 41.7591 47.876C43.1628 48.6073 44.5625 49.3461 45.9513 50.1058C46.5307 50.3624 46.6883 51.0648 46.4373 51.6062C45.7984 53.4312 45.4914 55.5399 46.4316 57.3228C48.2986 60.6648 51.9297 62.4331 55.1552 64.2127C57.9134 65.5249 60.9577 67.096 64.1031 66.4834C65.803 66.0839 67.0499 64.567 67.5132 62.9381C67.8294 61.5232 66.8437 60.2618 65.9346 59.2964C61.1999 54.4723 54.6755 51.8433 50.121 46.8129C48.2625 44.7886 46.8623 42.0841 47.2321 39.2663C47.7732 35.2876 50.5217 31.4712 54.4583 30.2948C58.3232 29.0976 62.4766 30.053 66.1181 31.5398Z" fill="#8CC84B"/>
</svg>
