<svg width="99" height="101" viewBox="0 0 99 101" fill="none" xmlns="http://www.w3.org/2000/svg">
<path d="M72.4268 6.40592C49.9927 -5.47556 46.2408 4.99507 46.2408 4.99507L40.9276 15.0875L62.3362 26.4259L60.7335 29.452L30.8219 13.6103C30.8219 13.6103 17.3285 4.37921 5.34012 27.0151C-6.64858 49.6517 6.30656 55.485 6.30656 55.485L13.7844 59.4453L19.3476 48.9411C19.3476 48.9411 25.5805 36.1976 38.3136 42.9412L59.547 54.1868C59.547 54.1868 71.3745 60.6977 77.5829 48.9754L87.8479 29.5933C87.8479 29.5933 95.8722 18.823 72.4268 6.40592ZM57.0324 6.93213C57.5385 7.19962 57.9869 7.56426 58.352 8.00523C58.717 8.44621 58.9916 8.95486 59.1599 9.50205C59.3281 10.0492 59.3868 10.6242 59.3326 11.1941C59.2784 11.764 59.1124 12.3176 58.844 12.8232C58.5765 13.3294 58.2119 13.7778 57.7709 14.1429C57.3299 14.5079 56.8212 14.7824 56.2741 14.9508C55.727 15.119 55.1519 15.1777 54.582 15.1235C54.0121 15.0693 53.4586 14.9033 52.9529 14.6349C52.4467 14.3674 51.9983 14.0027 51.6333 13.5618C51.2682 13.1208 50.9937 12.6122 50.8254 12.065C50.6572 11.5178 50.5985 10.9428 50.6526 10.3729C50.7068 9.80299 50.8728 9.2494 51.1412 8.74371C51.4087 8.23764 51.7734 7.78918 52.2143 7.4241C52.6553 7.0591 53.164 6.78458 53.7112 6.61632C54.2583 6.44805 54.8333 6.38931 55.4032 6.44351C55.9731 6.49771 56.5267 6.66373 57.0324 6.93213Z" fill="url(#paint0_linear_171_190)"/>
<path d="M26.5044 94.6552C48.9386 106.537 52.6904 96.066 52.6904 96.066L58.0034 85.9739L36.5945 74.6354L38.1972 71.6093L68.1088 87.451C68.1088 87.451 81.6022 96.682 93.591 74.0455C105.58 51.4092 92.6245 45.5759 92.6245 45.5759L85.1466 41.6155L79.5835 52.1194C79.5835 52.1194 73.3506 64.8629 60.6175 58.1192L39.3841 46.8736C39.3841 46.8736 27.5566 40.3628 21.348 52.0855L11.0828 71.468C11.0828 71.468 3.05939 82.2384 26.5044 94.6552ZM41.8985 94.1296C41.3923 93.8622 40.9439 93.4976 40.5789 93.0566C40.2138 92.6156 39.9394 92.107 39.7711 91.5598C39.6028 91.0126 39.5441 90.4376 39.5982 89.8677C39.6525 89.2978 39.8185 88.7442 40.0868 88.2386C40.3543 87.7324 40.719 87.2839 41.16 86.9187C41.6009 86.5536 42.1095 86.2791 42.6567 86.1108C43.204 85.9425 43.779 85.8838 44.3489 85.9379C44.9188 85.9921 45.4725 86.1582 45.9782 86.4266C46.4844 86.6941 46.9327 87.0587 47.2978 87.4997C47.6629 87.9406 47.9374 88.4493 48.1056 88.9964C48.2739 89.5436 48.3326 90.1186 48.2784 90.6886C48.2242 91.2585 48.0582 91.812 47.7898 92.3177C47.5224 92.8238 47.1577 93.2723 46.7167 93.6373C46.2757 94.0024 45.7671 94.2768 45.2199 94.4451C44.6728 94.6134 44.0978 94.6721 43.5278 94.618C42.9579 94.5638 42.4042 94.398 41.8985 94.1296Z" fill="url(#paint1_linear_171_190)"/>
<defs>
<linearGradient id="paint0_linear_171_190" x1="34.4063" y1="-0.178009" x2="62.0609" y2="89.3386" gradientUnits="userSpaceOnUse">
<stop stop-color="#387EB8"/>
<stop offset="1" stop-color="#366994"/>
</linearGradient>
<linearGradient id="paint1_linear_171_190" x1="44.9998" y1="37.656" x2="68.4835" y2="107.023" gradientUnits="userSpaceOnUse">
<stop stop-color="#FFE052"/>
<stop offset="1" stop-color="#FFC331"/>
</linearGradient>
</defs>
</svg>
