<svg width="101" height="90" viewBox="0 0 101 90" fill="none" xmlns="http://www.w3.org/2000/svg">
<path d="M50.3067 53.9507C55.1757 53.9507 59.1229 50.0036 59.1229 45.1345C59.1229 40.2654 55.1757 36.3183 50.3067 36.3183C45.4376 36.3183 41.4904 40.2654 41.4904 45.1345C41.4904 50.0036 45.4376 53.9507 50.3067 53.9507Z" fill="#61DAFB"/>
<path d="M50.3067 53.9507C55.1757 53.9507 59.1229 50.0036 59.1229 45.1345C59.1229 40.2654 55.1757 36.3183 50.3067 36.3183C45.4376 36.3183 41.4904 40.2654 41.4904 45.1345C41.4904 50.0036 45.4376 53.9507 50.3067 53.9507Z" stroke="#61DAFB" stroke-width="5"/>
<path d="M50.3066 63.197C76.4333 63.197 97.6132 55.1101 97.6132 45.1344C97.6132 35.1588 76.4333 27.0719 50.3066 27.0719C24.1799 27.0719 3 35.1588 3 45.1344C3 55.1101 24.1799 63.197 50.3066 63.197Z" stroke="#61DAFB" stroke-width="5"/>
<path d="M34.664 54.1657C47.7274 76.7921 65.3207 91.091 73.9599 86.1031C82.5991 81.1153 79.0126 58.7296 65.9492 36.1032C52.8858 13.4767 35.2925 -0.822164 26.6533 4.16567C18.0141 9.15349 21.6006 31.5393 34.664 54.1657Z" stroke="#61DAFB" stroke-width="5"/>
<path d="M34.664 36.1031C21.6007 58.7295 18.0141 81.1153 26.6533 86.1031C35.2925 91.0909 52.8859 76.7921 65.9492 54.1657C79.0126 31.5392 82.5991 9.15349 73.9599 4.16565C65.3208 -0.822183 47.7274 13.4767 34.664 36.1031Z" stroke="#61DAFB" stroke-width="5"/>
</svg>
