<svg width="41" height="41" viewBox="0 0 41 41" fill="none" xmlns="http://www.w3.org/2000/svg">
<path d="M30.2915 3.54095C33.2686 5.25976 35.7407 7.73193 37.4595 10.709C39.1783 13.6861 40.0832 17.0631 40.0832 20.5007C40.0831 23.9384 39.1782 27.3154 37.4594 30.2924C35.7406 33.2695 33.2684 35.7416 30.2913 37.4604C27.3142 39.1792 23.9371 40.084 20.4995 40.0839C17.0619 40.0839 13.6849 39.179 10.7078 37.4601C7.73082 35.7412 5.2587 33.269 3.53996 30.2919C1.82121 27.3148 0.916417 23.9377 0.916504 20.5001L0.926296 19.8656C1.03597 16.4836 2.02012 13.1876 3.7828 10.2991C5.54548 7.41066 8.02653 5.02821 10.9841 3.38405C13.9416 1.73989 17.2747 0.890142 20.6585 0.917639C24.0422 0.945136 27.3611 1.84894 30.2915 3.54095ZM26.0458 26.2674C23.5294 22.4937 17.5193 22.0922 13.538 24.7458C13.1058 25.034 12.8059 25.4822 12.7042 25.9915C12.6025 26.5009 12.7072 27.0299 12.9955 27.462C13.2838 27.8941 13.7319 28.194 14.2413 28.2958C14.7506 28.3975 15.2796 28.2927 15.7117 28.0044C18.0519 26.4437 21.6141 26.6826 22.7872 28.4412C22.9299 28.6551 23.1134 28.8389 23.3271 28.9819C23.5409 29.125 23.7807 29.2246 24.0329 29.2749C24.2852 29.3253 24.5448 29.3255 24.7971 29.2755C25.0494 29.2255 25.2894 29.1263 25.5034 28.9836C25.7173 28.8409 25.9011 28.6574 26.0442 28.4437C26.1872 28.2299 26.2868 27.9901 26.3372 27.7379C26.3875 27.4856 26.3877 27.226 26.3377 26.9737C26.2878 26.7214 26.1886 26.4814 26.0458 26.2674ZM28.529 19.9126C23.6939 16.2858 16.9846 15.6297 11.6717 18.7592C11.224 19.023 10.8994 19.4539 10.7694 19.957C10.6394 20.4602 10.7146 20.9944 10.9784 21.4421C11.2423 21.8898 11.6732 22.2143 12.1763 22.3443C12.6794 22.4744 13.2136 22.3992 13.6613 22.1353C17.5506 19.8421 22.56 20.3337 26.179 23.0459C26.5945 23.3576 27.1168 23.4914 27.631 23.4179C28.1451 23.3445 28.609 23.0698 28.9207 22.6543C29.2323 22.2388 29.3661 21.7165 29.2927 21.2023C29.2192 20.6882 28.9445 20.2242 28.529 19.9126ZM31.3294 13.9436C24.1286 9.44337 16.121 9.72928 9.8328 12.8744C9.38487 13.1159 9.04856 13.5223 8.89511 14.0076C8.74166 14.4928 8.78313 15.0187 9.01071 15.4738C9.2383 15.929 9.63414 16.2777 10.1144 16.4461C10.5946 16.6145 11.1216 16.5893 11.5835 16.3759C16.7438 13.7967 23.3277 13.5617 29.2536 17.2649C29.694 17.5402 30.2258 17.6293 30.7319 17.5125C31.2379 17.3957 31.6769 17.0826 31.9522 16.6422C32.2274 16.2018 32.3165 15.67 32.1997 15.1639C32.0829 14.6578 31.7699 14.2189 31.3294 13.9436Z" fill="black"/>
</svg>
