<svg width="45" height="45" viewBox="0 0 45 45" fill="none" xmlns="http://www.w3.org/2000/svg">
<path d="M33.5625 20.4375C27.5625 16.875 17.5312 16.5 11.8125 18.2812C10.875 18.5625 9.9375 18 9.65625 17.1562C9.375 16.2187 9.9375 15.2812 10.7812 15C17.4375 13.0312 28.4062 13.4063 35.3438 17.5313C36.1875 18 36.4688 19.125 36 19.9688C35.5313 20.625 34.4062 20.9062 33.5625 20.4375ZM33.375 25.6875C32.9062 26.3438 32.0625 26.625 31.4062 26.1562C26.3438 23.0625 18.6563 22.125 12.75 24C12 24.1875 11.1562 23.8125 10.9688 23.0625C10.7812 22.3125 11.1562 21.4688 11.9062 21.2812C18.75 19.2188 27.1875 20.25 33 23.8125C33.5625 24.0938 33.8437 25.0312 33.375 25.6875ZM31.125 30.8438C30.75 31.4063 30.0938 31.5938 29.5312 31.2188C25.125 28.5 19.5938 27.9375 13.0312 29.4375C12.375 29.625 11.8125 29.1562 11.625 28.5938C11.4375 27.9375 11.9062 27.375 12.4688 27.1875C19.5938 25.5938 25.7812 26.25 30.6562 29.25C31.3125 29.5312 31.4062 30.2813 31.125 30.8438ZM22.5 3.75C20.0377 3.75 17.5995 4.23498 15.3247 5.17726C13.0498 6.11953 10.9828 7.50065 9.24175 9.24175C5.72544 12.7581 3.75 17.5272 3.75 22.5C3.75 27.4728 5.72544 32.2419 9.24175 35.7583C10.9828 37.4994 13.0498 38.8805 15.3247 39.8227C17.5995 40.765 20.0377 41.25 22.5 41.25C27.4728 41.25 32.2419 39.2746 35.7583 35.7583C39.2746 32.2419 41.25 27.4728 41.25 22.5C41.25 20.0377 40.765 17.5995 39.8227 15.3247C38.8805 13.0498 37.4994 10.9828 35.7583 9.24175C34.0172 7.50065 31.9502 6.11953 29.6753 5.17726C27.4005 4.23498 24.9623 3.75 22.5 3.75Z" fill="black"/>
</svg>
