<svg width="49" height="42" viewBox="0 0 49 42" fill="none" xmlns="http://www.w3.org/2000/svg">
<path d="M18.8521 4.37683C11.4247 6.83123 8.00964 12.0778 8.60605 20.1162C10.1647 15.483 12.9544 13.0175 16.9743 12.7182C19.2682 12.5474 21.2906 13.5842 23.5293 14.7312C27.1755 16.5998 31.3955 18.7625 38.2992 16.4812C45.726 14.027 49.1417 8.7802 48.5442 0.741423C46.9863 5.37432 44.197 7.84056 40.1763 8.14007C37.8831 8.31062 35.8607 7.27372 33.6221 6.12677C29.9758 4.25813 25.7551 2.09573 18.8521 4.37683ZM10.4463 25.6852C3.01957 28.1394 -0.396167 33.3862 0.201191 41.425C1.75922 36.7921 4.54858 34.3258 8.56948 34.027C10.8629 33.8572 12.885 34.8933 15.1235 36.0396C18.7697 37.9082 22.9907 40.0713 29.8936 37.7903C37.3211 35.3358 40.7361 30.0892 40.1395 22.0502C38.5807 26.6834 35.7914 29.1496 31.7712 29.4482C29.4775 29.6197 27.455 28.5821 25.2165 27.4358C21.5703 25.5672 17.35 23.4039 10.4463 25.6852Z" fill="#06B6D4"/>
</svg>
