<svg width="100" height="101" viewBox="0 0 100 101" fill="none" xmlns="http://www.w3.org/2000/svg">
<path d="M0 10.1731C0 4.65025 4.47715 0.173096 10 0.173096H90C95.5228 0.173096 100 4.65025 100 10.1731V90.1726C100 95.6955 95.5228 100.173 90 100.173H10C4.47715 100.173 0 95.6955 0 90.1726V10.1731Z" fill="#017ACB"/>
<path d="M48.0157 37.2043H48.672C50.9588 37.2043 52.8126 39.0581 52.8126 41.345C52.8126 43.6318 50.9588 45.4856 48.672 45.4856H46.3282C42.747 45.4856 39.8438 48.3888 39.8438 51.97V81.9729C39.8438 82.1834 39.703 82.3677 39.5 82.4231C39.0313 82.5481 32.8594 82.5481 31.5313 82.4075C30.93 82.3544 30.4688 81.8507 30.4688 81.2471V51.97C30.4688 48.3888 27.5656 45.4856 23.9844 45.4856H21.6642C19.3644 45.4856 17.5 43.6175 17.5 41.3177C17.5 39.0404 19.3323 37.1834 21.6094 37.1575C23.8594 37.1262 29.6406 37.1262 34.4532 37.1575C39.2657 37.1887 45.3594 37.2043 48.0157 37.2043ZM84.6251 78.4231C82.7189 80.4387 80.672 81.5637 77.2657 82.4856C75.7813 82.8918 75.5313 82.9075 72.1876 82.8918C68.8438 82.8762 68.5782 82.8762 66.9532 82.4543C62.7501 81.3762 59.3594 79.2668 57.0469 76.2825C56.3907 75.4387 55.3126 73.6887 55.3126 73.47C55.3126 73.4075 55.4688 73.2668 55.6719 73.1731C55.8751 73.0793 56.2969 72.8137 56.6407 72.6106C56.9844 72.4075 57.6094 72.0325 58.0313 71.8137C58.4532 71.595 59.6719 70.8762 60.7345 70.2356C61.797 69.595 62.7657 69.0793 62.8751 69.0793C62.9845 69.0793 63.1876 69.2981 63.3438 69.5637C64.2813 71.1418 66.4688 73.1575 68.0157 73.845C68.9688 74.2512 71.0782 74.7043 72.0938 74.7043C73.0313 74.7043 74.7501 74.2981 75.672 73.8762C76.6563 73.4231 77.1564 72.97 77.7501 72.0637C78.1564 71.4231 78.2032 71.2512 78.1876 70.0325C78.1876 68.9075 78.1251 68.595 77.8126 68.0793C76.9376 66.6418 75.7501 65.8918 70.9376 63.7668C65.9688 61.5637 63.7345 60.2512 61.9219 58.4856C60.5782 57.1731 60.3126 56.8137 59.4688 55.1731C58.3751 53.0637 58.2344 52.3762 58.2188 49.2356C58.2032 47.0325 58.2501 46.3137 58.4844 45.5637C58.8126 44.4387 59.8751 42.2668 60.3594 41.72C61.3594 40.5481 61.7188 40.1887 62.422 39.6106C64.547 37.8606 67.8595 36.7043 71.0313 36.595C71.3907 36.595 72.5782 36.6575 73.6876 36.7356C76.8751 37.0012 79.047 37.7825 81.1407 39.4543C82.7189 40.7043 85.1095 43.6418 84.8751 44.0325C84.7189 44.2668 78.4845 48.4231 78.0782 48.5481C77.8282 48.6262 77.6564 48.5325 77.3126 48.1262C75.1876 45.5793 74.3282 45.0325 72.2657 44.9075C70.797 44.8137 70.0157 44.9856 69.0313 45.6418C68.0001 46.3293 67.5001 47.3762 67.5001 48.8293C67.5157 50.9543 68.3282 51.9543 71.3282 53.4387C73.2657 54.3918 74.922 55.1731 75.047 55.1731C75.2345 55.1731 79.2501 57.1731 80.297 57.7981C85.172 60.6575 87.1564 63.595 87.672 68.6575C88.047 72.47 86.9689 75.9543 84.6251 78.4231Z" fill="white"/>
</svg>
