<svg width="99" height="101" viewBox="0 0 99 101" fill="none" xmlns="http://www.w3.org/2000/svg">
<path d="M97.848 14.974L51.7313 98.8677C50.779 100.6 48.3328 100.61 47.3664 98.8865L0.335429 14.9818C-0.717631 13.1037 0.861189 10.8285 2.9535 11.2092L49.1197 19.6038C49.4142 19.6573 49.7158 19.6568 50.0102 19.6022L95.2107 11.221C97.2961 10.8343 98.8822 13.092 97.848 14.974Z" fill="url(#paint0_linear_171_188)"/>
<path d="M71.1109 0.197717L36.9835 7.0009C36.7108 7.05524 36.4636 7.20024 36.2808 7.41309C36.0979 7.62594 35.9898 7.89458 35.9734 8.17676L33.8742 44.2471C33.8626 44.4449 33.8966 44.6428 33.9733 44.8249C34.05 45.0071 34.1675 45.1685 34.3162 45.2964C34.465 45.4244 34.6411 45.5152 34.8304 45.5618C35.0197 45.6085 35.2171 45.6095 35.407 45.565L44.9086 43.3342C45.7976 43.1255 46.601 43.9221 46.4181 44.8315L43.5952 58.8947C43.4054 59.8412 44.2786 60.6503 45.1871 60.3694L51.056 58.5557C51.9656 58.2748 52.84 59.0863 52.6474 60.0335L48.1614 82.1234C47.8807 83.5052 49.6873 84.2586 50.4405 83.0741L50.944 82.2829L78.753 25.8226C79.219 24.8773 78.4156 23.7993 77.3955 23.9999L67.6146 25.9201C66.6958 26.1003 65.9138 25.2296 66.1731 24.3151L72.5566 1.80235C72.8162 0.885526 72.0308 0.0143525 71.1109 0.197717Z" fill="url(#paint1_linear_171_188)"/>
<defs>
<linearGradient id="paint0_linear_171_188" x1="-0.812872" y1="7.82508" x2="57.8451" y2="77.5217" gradientUnits="userSpaceOnUse">
<stop stop-color="#41D1FF"/>
<stop offset="1" stop-color="#BD34FE"/>
</linearGradient>
<linearGradient id="paint1_linear_171_188" x1="53.3985" y1="2.04492" x2="63.9804" y2="73.3971" gradientUnits="userSpaceOnUse">
<stop stop-color="#FFEA83"/>
<stop offset="0.083" stop-color="#FFDD35"/>
<stop offset="1" stop-color="#FFA800"/>
</linearGradient>
</defs>
</svg>
